<?xml version="1.0" standalone="no"?>
<!DOCTYPE svg PUBLIC "-//W3C//DTD SVG 20010904//EN"
 "http://www.w3.org/TR/2001/REC-SVG-20010904/DTD/svg10.dtd">
<svg version="1.0" xmlns="http://www.w3.org/2000/svg"
 width="512.000000pt" height="512.000000pt" viewBox="0 0 512.000000 512.000000"
 preserveAspectRatio="xMidYMid meet">

<g transform="translate(0.000000,512.000000) scale(0.100000,-0.100000)"
fill="#000000" stroke="none">
<path d="M3625 4007 c-148 -50 -245 -155 -275 -300 -35 -170 58 -350 220 -425
71 -33 191 -41 268 -19 143 43 251 169 272 317 23 167 -66 330 -220 403 -52
25 -80 31 -145 34 -48 2 -96 -2 -120 -10z"/>
<path d="M2516 3750 l-68 -110 56 -98 c30 -53 82 -142 114 -197 l60 -100 -39
-23 c-52 -31 -89 -95 -89 -154 0 -58 47 -258 106 -452 38 -126 44 -152 32
-160 -8 -6 -60 -51 -116 -100 -57 -49 -104 -87 -106 -85 -1 2 -49 164 -106
359 -56 195 -112 373 -124 394 -12 22 -38 53 -59 70 l-39 31 -141 0 c-78 0
-288 -4 -467 -8 l-325 -8 -124 110 c-164 145 -216 160 -323 92 -81 -51 -110
-149 -65 -224 13 -22 327 -310 767 -703 410 -367 775 -695 811 -729 37 -34 93
-75 125 -91 52 -25 70 -29 149 -29 79 0 97 4 145 28 99 50 1844 1583 1904
1672 102 153 -106 339 -265 236 -24 -16 -154 -128 -288 -248 l-244 -220 -54
33 c-104 62 -240 71 -338 22 -28 -14 -127 -92 -220 -172 -94 -80 -173 -146
-176 -146 -4 0 -20 53 -37 118 -50 188 -50 172 1 228 40 43 44 51 34 70 -46
84 -413 704 -417 704 -3 0 -36 -50 -74 -110z m265 -288 c160 -272 185 -319
173 -332 -9 -9 -17 -11 -23 -5 -5 6 -80 132 -167 280 -86 149 -162 276 -169
283 -10 11 -19 9 -51 -10 l-38 -23 24 40 c43 72 52 85 59 85 3 0 90 -143 192
-318z m-841 -709 c0 -5 27 -97 59 -205 43 -148 54 -194 41 -185 -9 7 -110 95
-223 197 l-207 185 123 5 c67 3 141 7 165 8 23 1 42 -1 42 -5z"/>
<path d="M43 3264 l-42 -35 1050 -992 c600 -567 1079 -1011 1117 -1037 210
-143 488 -128 708 37 28 21 545 470 1148 997 l1096 958 -42 38 c-36 32 -45 36
-58 25 -8 -7 -505 -440 -1103 -963 -598 -523 -1115 -969 -1147 -991 -87 -57
-161 -83 -258 -89 -117 -7 -214 24 -304 96 -21 16 -504 470 -1074 1008 -570
539 -1039 980 -1043 981 -3 2 -25 -13 -48 -33z"/>
</g>
</svg>
